<svg xmlns="http://www.w3.org/2000/svg" width="31" height="31" viewBox="0 0 31 31">
  <g id="Group_42916" data-name="Group 42916" transform="translate(-0.217)">
    <circle id="Ellipse_1203" data-name="Ellipse 1203" cx="15.5" cy="15.5" r="15.5" transform="translate(0.217)" fill="#f7f7f7"/>
    <path id="mood_24dp_FILL1_wght400_GRAD0_opsz24" d="M94.855-870.1a1.591,1.591,0,0,0,1.169-.481,1.591,1.591,0,0,0,.481-1.169,1.592,1.592,0,0,0-.481-1.169,1.592,1.592,0,0,0-1.169-.482,1.592,1.592,0,0,0-1.169.482,1.592,1.592,0,0,0-.481,1.169,1.591,1.591,0,0,0,.481,1.169A1.591,1.591,0,0,0,94.855-870.1Zm-7.7,0a1.591,1.591,0,0,0,1.169-.481,1.591,1.591,0,0,0,.481-1.169,1.592,1.592,0,0,0-.481-1.169,1.592,1.592,0,0,0-1.169-.482,1.592,1.592,0,0,0-1.169.482,1.592,1.592,0,0,0-.481,1.169,1.591,1.591,0,0,0,.481,1.169A1.591,1.591,0,0,0,87.153-870.1ZM91-857.992a10.71,10.71,0,0,1-4.292-.867,11.11,11.11,0,0,1-3.494-2.352,11.107,11.107,0,0,1-2.352-3.494A10.714,10.714,0,0,1,80-869a10.716,10.716,0,0,1,.867-4.292,11.114,11.114,0,0,1,2.352-3.494,11.11,11.11,0,0,1,3.494-2.352A10.719,10.719,0,0,1,91-880a10.719,10.719,0,0,1,4.292.866,11.109,11.109,0,0,1,3.494,2.352,11.114,11.114,0,0,1,2.352,3.494,10.716,10.716,0,0,1,.867,4.292,10.713,10.713,0,0,1-.867,4.291,11.106,11.106,0,0,1-2.352,3.494,11.11,11.11,0,0,1-3.494,2.352A10.71,10.71,0,0,1,91-857.992Zm0-4.952a5.831,5.831,0,0,0,2.944-.77,6.088,6.088,0,0,0,2.173-2.091.656.656,0,0,0-.028-.66.627.627,0,0,0-.578-.33H86.492a.627.627,0,0,0-.578.33.656.656,0,0,0-.028.66,6.055,6.055,0,0,0,2.187,2.091A5.855,5.855,0,0,0,91-862.944Z" transform="translate(-75.287 884.496)" fill="#DFE1E4"/>
  </g>
</svg>
