<svg xmlns="http://www.w3.org/2000/svg" width="32" height="26.67" viewBox="0 0 32 26.67">
  <path id="wifi_off_24dp_FILL0_wght400_GRAD0_opsz24" d="M50.863-804.735,38.627-817.041a12.442,12.442,0,0,0-2.092.668,10.764,10.764,0,0,0-1.881,1.02,2.994,2.994,0,0,1-1.635.51,1.915,1.915,0,0,1-1.494-.615,1.913,1.913,0,0,1-.58-1.53,1.832,1.832,0,0,1,.756-1.424,15.036,15.036,0,0,1,1.705-1.09q.9-.492,1.846-.914l-3.164-3.164q-.914.492-1.776,1.037t-1.67,1.178a2.492,2.492,0,0,1-1.6.563,1.97,1.97,0,0,1-1.494-.633,1.946,1.946,0,0,1-.6-1.512,1.868,1.868,0,0,1,.738-1.442q.774-.633,1.582-1.213a15.811,15.811,0,0,1,1.723-1.072l-1.969-1.969a1.334,1.334,0,0,1-.387-.984,1.334,1.334,0,0,1,.387-.984,1.334,1.334,0,0,1,.985-.387,1.334,1.334,0,0,1,.985.387l23.874,23.874a1.369,1.369,0,0,1,.422,1,1.369,1.369,0,0,1-.422,1,1.5,1.5,0,0,1-1,.4A1.309,1.309,0,0,1,50.863-804.735ZM40.947-806a3.366,3.366,0,0,1-2.5-1.037,3.412,3.412,0,0,1-1.02-2.479,3.4,3.4,0,0,1,1.02-2.5,3.4,3.4,0,0,1,2.5-1.02,3.4,3.4,0,0,1,2.5,1.02,3.4,3.4,0,0,1,1.02,2.5,3.412,3.412,0,0,1-1.02,2.479A3.366,3.366,0,0,1,40.947-806Zm9.6-9.669a1.744,1.744,0,0,1-1.319.545,1.871,1.871,0,0,1-1.319-.58l-.352-.352-.352-.352-3.375-3.375a.727.727,0,0,1-.176-.949.79.79,0,0,1,.985-.316,14.593,14.593,0,0,1,3.006,1.09,15.753,15.753,0,0,1,2.655,1.653,1.821,1.821,0,0,1,.721,1.283A1.578,1.578,0,0,1,50.546-815.67Zm5.8-5.766a2.009,2.009,0,0,1-1.477.65,2.387,2.387,0,0,1-1.582-.545,19.256,19.256,0,0,0-5.678-3.217,19.37,19.37,0,0,0-6.663-1.143q-.738,0-1.424.053t-1.389.158a2.044,2.044,0,0,1-1.582-.369,2.048,2.048,0,0,1-.844-1.389,2.007,2.007,0,0,1,.387-1.582,2.111,2.111,0,0,1,1.406-.844,16.5,16.5,0,0,1,1.705-.193q.861-.053,1.74-.053a23.356,23.356,0,0,1,8.28,1.459,24.129,24.129,0,0,1,6.979,4.026,1.974,1.974,0,0,1,.738,1.477A1.946,1.946,0,0,1,56.348-821.436Z" transform="translate(-24.947 831)" fill="#b3261e"/>
</svg>
